<svg width="601" height="146" viewBox="0 0 601 146" fill="none" xmlns="http://www.w3.org/2000/svg">
<path d="M281.36 48.0257C281.36 48.6729 281.198 49.7023 280.898 51.0278C280.599 52.3466 280.169 53.9367 279.647 55.6945C278.602 59.2102 277.19 63.3868 275.722 67.3936C274.255 71.4009 272.733 75.233 271.472 78.0601C270.839 79.476 270.276 80.6313 269.819 81.4303C269.589 81.8312 269.393 82.1311 269.234 82.3265C269.161 82.4167 269.103 82.4757 269.06 82.5107C269.015 82.4757 268.954 82.4162 268.878 82.3254C268.715 82.1316 268.512 81.8349 268.276 81.4388C267.803 80.6493 267.217 79.5058 266.559 78.1063C265.243 75.31 263.651 71.5193 262.111 67.5534C260.572 63.5886 259.088 59.4533 257.99 55.9695C257.441 54.2265 256.99 52.6503 256.675 51.341C256.359 50.0246 256.189 49.0026 256.189 48.3576C256.189 45.7641 258.013 43.2794 260.588 41.4218C263.157 39.5689 266.391 38.403 269.061 38.403C271.735 38.403 274.825 39.4887 277.246 41.2545C279.671 43.024 281.36 45.4248 281.36 48.0257Z" fill="#F2FAF8" stroke="#F2FAF8"/>
<path d="M255.857 32.0984C255.857 32.0984 254.927 31.515 248.966 26.0487C243.006 20.582 231.577 11.9643 229.078 12.2302C226.58 12.4957 211.806 16.5959 211.806 16.5959C211.806 16.5959 200.676 19.8212 197.02 19.1575C193.363 18.4939 190.039 16.503 189.707 13.5166C189.707 13.5166 194.693 20.4848 211.314 12.5212C227.934 4.55754 221.921 6.74595 229.264 3.56209C231.425 2.62504 235.46 2.08245 238.571 4.55754C246.49 10.8584 262.837 23.4712 262.837 23.4712" stroke="#F2FAF8"/>
<path d="M283.114 32.4303C283.114 32.4303 283.859 31.395 289.819 25.9288C295.78 20.4615 307.21 11.8443 309.708 12.1103C312.207 12.3757 326.98 16.4759 326.98 16.4759C326.98 16.4759 338.11 19.7012 341.767 19.0376C345.423 18.3739 348.747 16.383 349.08 13.3966C349.08 13.3966 344.094 20.3648 327.473 12.4012C310.853 4.43756 316.865 6.62596 309.523 3.4421C307.361 2.50506 303.326 1.96247 300.215 4.43756C292.296 10.7379 276.799 23.4712 276.799 23.4712" stroke="#F2FAF8"/>
<path d="M341.766 19.0376C341.766 19.0376 347.27 51.6755 316.688 56.9846C286.106 62.2937 283.262 31.9785 283.262 31.9785" stroke="#F2FAF8"/>
<path d="M197.073 18.8257C197.073 18.8257 191.569 51.4637 222.151 56.7728C252.733 62.0819 255.578 31.7666 255.578 31.7666" stroke="#F2FAF8"/>
<path d="M225.94 52.0074C235.119 52.0074 242.56 44.5796 242.56 35.4167C242.56 26.2537 235.119 18.8257 225.94 18.8257C216.76 18.8257 209.319 26.2537 209.319 35.4167C209.319 44.5796 216.76 52.0074 225.94 52.0074Z" fill="#F2FAF8"/>
<path d="M311.702 52.0074C320.881 52.0074 328.322 44.5796 328.322 35.4167C328.322 26.2537 320.881 18.8257 311.702 18.8257C302.522 18.8257 295.081 26.2537 295.081 35.4167C295.081 44.5796 302.522 52.0074 311.702 52.0074Z" fill="#F2FAF8"/>
<path d="M262.837 23.4712C266.494 26.1257 274.472 25.4621 276.799 23.4712" stroke="#F2FAF8"/>
<path d="M255.857 32.0984C266.859 40.7315 272.798 40.3626 283.114 32.0984" stroke="#F2FAF8"/>
<path d="M36.3093 109.448H21.6209L18.0578 135.143H25.9109V143.345H2.35139V135.143H9.25934L22.6389 51.7429H12.8224V43.6133H34.1276L49.1797 135.143H55.8694V143.345H32.3102V135.143H40.236L36.3093 109.448ZM22.6389 101.754H35.1461L28.7468 58.348L22.6389 101.754ZM75.7211 136.522C77.1268 136.522 78.3383 136.183 79.3568 135.506C80.3748 134.829 81.3444 134.079 82.265 133.256L86.2646 140.224C85.7312 140.708 85.077 141.24 84.301 141.821C83.574 142.402 82.7017 142.934 81.6837 143.418C80.7142 143.902 79.6233 144.313 78.4112 144.652C77.1996 144.991 75.9147 145.16 74.5574 145.16C70.5822 145.16 67.4315 143.829 65.1046 141.168C62.8262 138.458 61.6869 134.369 61.6869 128.901V82.3737H53.3974V74.2444H61.6869V53.2672H70.7764V74.2444H82.8469V82.3737H70.7764V128.901C70.7764 131.514 71.188 133.45 72.0124 134.708C72.8363 135.917 74.0728 136.522 75.7211 136.522ZM86.6279 43.6133H101.607V81.648C103.353 78.7444 105.171 76.47 107.061 74.8252C109 73.1311 111.206 72.2843 113.678 72.2843C117.266 72.2843 119.834 73.8574 121.386 77.0025C122.937 80.1481 123.713 84.6242 123.713 90.4308V135.143H129.603V143.345H110.115V135.143H114.623V93.2616C114.623 90.6001 114.55 88.4468 114.405 86.8015C114.308 85.1562 114.114 83.8741 113.823 82.9545C113.532 81.9867 113.169 81.3337 112.733 80.9949C112.296 80.6562 111.764 80.4869 111.133 80.4869C110.212 80.4869 109.243 80.9705 108.225 81.9384C107.255 82.8579 106.334 84.0673 105.462 85.5677C104.589 87.0675 103.789 88.7616 103.062 90.6485C102.383 92.4875 101.898 94.3505 101.607 96.2379V135.143H106.116V143.345H86.6279V135.143H92.5182V51.7429H86.6279V43.6133ZM157.816 105.601C157.768 102.359 157.598 99.238 157.307 96.2379C157.065 93.2372 156.677 90.6001 156.144 88.3257C155.61 86.003 154.907 84.1645 154.035 82.8096C153.211 81.4542 152.193 80.7767 150.981 80.7767C149.866 80.7767 148.896 81.4542 148.072 82.8096C147.248 84.1645 146.545 86.003 145.964 88.3257C145.382 90.6001 144.921 93.2372 144.582 96.2379C144.243 99.238 144.049 102.359 144.001 105.601H157.816ZM152.217 137.393C153.623 137.393 154.786 136.958 155.707 136.087C156.628 135.167 157.38 134.055 157.962 132.748C158.543 131.393 159.004 129.965 159.343 128.466C159.682 126.917 159.973 125.489 160.216 124.183H167.415C167.027 127.183 166.42 129.99 165.597 132.603C164.772 135.167 163.706 137.393 162.397 139.281C161.088 141.168 159.537 142.644 157.743 143.709C155.998 144.773 154.011 145.305 151.781 145.305C149.163 145.305 146.787 144.531 144.655 142.982C142.57 141.434 140.776 139.135 139.274 136.087C137.771 133.038 136.608 129.264 135.783 124.764C135.008 120.263 134.62 115.061 134.62 109.158C134.62 103.593 135.008 98.5606 135.783 94.0601C136.608 89.5596 137.747 85.737 139.201 82.5914C140.655 79.4463 142.376 77.0269 144.364 75.3333C146.4 73.5909 148.654 72.7202 151.126 72.7202C156.265 72.7202 160.24 76.0347 163.052 82.6641C165.863 89.2936 167.269 98.9232 167.269 111.553V113.15H144.001C144.146 121.086 144.824 127.111 146.036 131.224C147.248 135.337 149.308 137.393 152.217 137.393ZM172.722 74.2444H187.775V81.9384C189.471 79.0348 191.265 76.7121 193.155 74.9702C195.095 73.18 197.3 72.2843 199.773 72.2843C203.36 72.2843 205.929 73.8574 207.48 77.0025C209.032 80.1481 209.807 84.6242 209.807 90.4308V135.143H215.77V143.345H196.21V135.143H200.718V93.2616C200.718 90.6001 200.645 88.4468 200.5 86.8015C200.403 85.1562 200.209 83.8741 199.918 82.9545C199.675 81.9867 199.336 81.3337 198.9 80.9949C198.464 80.6562 197.93 80.4869 197.3 80.4869C196.331 80.4869 195.337 80.9705 194.319 81.9384C193.35 82.8579 192.428 84.0673 191.556 85.5677C190.683 87.0675 189.908 88.7616 189.229 90.6485C188.551 92.4875 188.066 94.3505 187.775 96.2379V135.143H192.21V143.345H172.722V135.143H178.685V82.3737H172.722V74.2444ZM241.439 107.053C238.869 107.295 236.785 107.827 235.185 108.649C233.634 109.424 232.422 110.537 231.549 111.989C230.676 113.392 230.095 115.134 229.804 117.215C229.513 119.296 229.368 121.715 229.368 124.473C229.368 128.732 229.804 131.974 230.676 134.199C231.549 136.426 232.737 137.538 234.239 137.538C234.87 137.538 235.524 137.297 236.203 136.813C236.93 136.329 237.609 135.675 238.239 134.853C238.918 134.03 239.523 133.063 240.057 131.949C240.639 130.788 241.099 129.578 241.439 128.32V107.053ZM222.969 89.4146C223.26 85.9303 223.842 83.0995 224.714 80.9222C225.587 78.6961 226.629 76.9542 227.841 75.6959C229.101 74.3894 230.507 73.4943 232.058 73.0106C233.61 72.5264 235.233 72.2843 236.93 72.2843C238.821 72.2843 240.59 72.5992 242.238 73.2283C243.886 73.8086 245.316 74.8975 246.528 76.4944C247.789 78.0431 248.759 80.1965 249.437 82.9545C250.164 85.7126 250.528 89.2453 250.528 93.552V135.143H256.49V143.345H241.439V138.555C240.032 140.829 238.603 142.523 237.148 143.636C235.694 144.749 233.779 145.305 231.403 145.305C229.949 145.305 228.568 144.87 227.259 143.998C225.95 143.128 224.787 141.845 223.769 140.151C222.751 138.41 221.926 136.281 221.297 133.764C220.715 131.199 220.424 128.247 220.424 124.909C220.424 120.166 220.957 116.295 222.024 113.295C223.09 110.246 224.569 107.827 226.459 106.037C228.35 104.198 230.555 102.867 233.076 102.044C235.646 101.173 238.433 100.52 241.439 100.085V93.4071C241.439 90.5035 241.293 88.1808 241.002 86.4384C240.76 84.6964 240.421 83.366 239.984 82.4464C239.548 81.4786 239.039 80.8495 238.457 80.5591C237.924 80.2203 237.366 80.051 236.785 80.051C235.233 80.051 234.046 80.9222 233.221 82.6641C232.398 84.3577 231.864 87.0919 231.622 90.8661L222.969 89.4146ZM286.304 143.345V117.94H294.084V124.038C294.084 126.554 294.278 128.635 294.666 130.28C295.102 131.926 295.635 133.232 296.266 134.199C296.895 135.167 297.599 135.845 298.374 136.232C299.198 136.619 299.998 136.813 300.774 136.813C301.501 136.813 302.228 136.668 302.955 136.377C303.683 136.087 304.337 135.555 304.919 134.78C305.5 134.006 305.961 132.966 306.3 131.659C306.688 130.304 306.882 128.562 306.882 126.433C306.882 123.578 306.373 121.159 305.355 119.175C304.385 117.191 303.149 115.4 301.647 113.803C300.144 112.207 298.52 110.682 296.775 109.23C295.078 107.779 293.478 106.133 291.975 104.294C290.473 102.456 289.212 100.303 288.194 97.8343C287.225 95.3666 286.74 92.3421 286.74 88.7616C286.74 86.1968 287.055 83.9224 287.685 81.9384C288.364 79.9061 289.236 78.2124 290.303 76.8576C291.418 75.4538 292.678 74.3894 294.084 73.6636C295.49 72.9379 296.92 72.5747 298.374 72.5747C300.022 72.5747 301.525 73.0589 302.883 74.0268C304.24 74.9946 305.331 76.3978 306.155 78.2363V74.2444H313.426V97.5439H305.646V91.7374C305.646 89.6084 305.5 87.8176 305.209 86.3661C304.967 84.9141 304.628 83.753 304.191 82.8818C303.755 81.9628 303.222 81.3092 302.592 80.9222C302.01 80.5352 301.356 80.3414 300.629 80.3414C299.998 80.3414 299.368 80.4869 298.738 80.7767C298.156 81.0188 297.623 81.4542 297.138 82.0833C296.653 82.7124 296.266 83.5592 295.975 84.6242C295.684 85.6404 295.538 86.9225 295.538 88.4712C295.538 91.4231 296.023 93.8663 296.993 95.802C298.011 97.7377 299.271 99.4796 300.774 101.028C302.277 102.577 303.876 104.077 305.573 105.529C307.318 106.932 308.942 108.577 310.445 110.464C311.948 112.303 313.184 114.529 314.153 117.142C315.171 119.755 315.68 122.997 315.68 126.869C315.68 130.159 315.269 132.942 314.444 135.216C313.62 137.442 312.578 139.256 311.317 140.66C310.106 142.014 308.772 142.982 307.318 143.563C305.864 144.192 304.531 144.507 303.319 144.507C300.992 144.507 299.077 143.998 297.575 142.982C296.072 141.918 294.763 140.442 293.648 138.555V143.345H286.304ZM387.969 104.606H371.183L367.111 133.972H376.086V143.345H349.161V133.972H357.055L372.346 38.6568H361.128V29.3659H385.477L402.679 133.972H410.324V143.345H383.399V133.972H392.457L387.969 104.606ZM372.346 95.8126H386.64L379.327 46.2057L372.346 95.8126ZM414.396 143.345V114.311H423.288V121.28C423.288 124.155 423.51 126.533 423.953 128.414C424.452 130.294 425.061 131.787 425.781 132.893C426.501 133.999 427.305 134.773 428.191 135.216C429.133 135.658 430.047 135.88 430.934 135.88C431.765 135.88 432.596 135.714 433.427 135.382C434.258 135.05 435.006 134.442 435.671 133.557C436.335 132.672 436.862 131.483 437.25 129.99C437.693 128.441 437.915 126.45 437.915 124.017C437.915 120.754 437.333 117.989 436.169 115.722C435.061 113.454 433.649 111.408 431.931 109.583C430.214 107.758 428.358 106.016 426.363 104.357C424.424 102.698 422.596 100.817 420.878 98.7161C419.161 96.6143 417.72 94.1535 416.557 91.3328C415.449 88.5126 414.895 85.0559 414.895 80.9636C414.895 78.0325 415.255 75.4331 415.975 73.1656C416.751 70.8434 417.748 68.9077 418.967 67.3591C420.241 65.7552 421.682 64.5384 423.288 63.7091C424.895 62.8798 426.529 62.4646 428.191 62.4646C430.075 62.4646 431.792 63.0178 433.344 64.1237C434.895 65.2301 436.141 66.8335 437.083 68.9353V64.3727H445.394V91.001H436.501V84.3646C436.501 81.9315 436.335 79.8853 436.003 78.2263C435.726 76.5672 435.338 75.2399 434.839 74.2444C434.341 73.1938 433.732 72.4468 433.011 72.0045C432.347 71.5623 431.599 71.3409 430.767 71.3409C430.047 71.3409 429.327 71.5071 428.607 71.8384C427.942 72.115 427.333 72.613 426.779 73.3318C426.225 74.0507 425.781 75.0185 425.449 76.2353C425.117 77.3964 424.951 78.8623 424.951 80.6318C424.951 84.0052 425.504 86.7983 426.613 89.0101C427.776 91.2224 429.217 93.2133 430.934 94.9828C432.651 96.7529 434.479 98.4672 436.418 100.126C438.413 101.73 440.269 103.61 441.986 105.767C443.704 107.868 445.116 110.413 446.225 113.399C447.388 116.385 447.97 120.091 447.97 124.515C447.97 128.276 447.499 131.455 446.557 134.055C445.615 136.599 444.424 138.672 442.984 140.276C441.599 141.824 440.075 142.931 438.413 143.594C436.751 144.313 435.228 144.673 433.842 144.673C431.183 144.673 428.995 144.092 427.277 142.931C425.56 141.714 424.064 140.027 422.79 137.871V143.345H414.396ZM454.452 143.345V114.311H463.344V121.28C463.344 124.155 463.566 126.533 464.009 128.414C464.508 130.294 465.117 131.787 465.837 132.893C466.557 133.999 467.36 134.773 468.247 135.216C469.189 135.658 470.103 135.88 470.989 135.88C471.821 135.88 472.651 135.714 473.483 135.382C474.313 135.05 475.061 134.442 475.726 133.557C476.391 132.672 476.917 131.483 477.305 129.99C477.749 128.441 477.97 126.45 477.97 124.017C477.97 120.754 477.388 117.989 476.225 115.722C475.117 113.454 473.704 111.408 471.987 109.583C470.269 107.758 468.413 106.016 466.418 104.357C464.48 102.698 462.651 100.817 460.934 98.7161C459.217 96.6143 457.776 94.1535 456.613 91.3328C455.505 88.5126 454.951 85.0559 454.951 80.9636C454.951 78.0325 455.311 75.4331 456.031 73.1656C456.807 70.8434 457.804 68.9077 459.022 67.3591C460.297 65.7552 461.737 64.5384 463.344 63.7091C464.951 62.8798 466.585 62.4646 468.247 62.4646C470.131 62.4646 471.848 63.0178 473.399 64.1237C474.951 65.2301 476.197 66.8335 477.139 68.9353V64.3727H485.449V91.001H476.557V84.3646C476.557 81.9315 476.391 79.8853 476.058 78.2263C475.782 76.5672 475.394 75.2399 474.895 74.2444C474.396 73.1938 473.787 72.4468 473.067 72.0045C472.402 71.5623 471.654 71.3409 470.823 71.3409C470.103 71.3409 469.383 71.5071 468.662 71.8384C467.998 72.115 467.388 72.613 466.834 73.3318C466.28 74.0507 465.837 75.0185 465.505 76.2353C465.172 77.3964 465.006 78.8623 465.006 80.6318C465.006 84.0052 465.56 86.7983 466.668 89.0101C467.832 91.2224 469.272 93.2133 470.989 94.9828C472.707 96.7529 474.535 98.4672 476.474 100.126C478.469 101.73 480.324 103.61 482.042 105.767C483.76 107.868 485.172 110.413 486.28 113.399C487.444 116.385 488.025 120.091 488.025 124.515C488.025 128.276 487.555 131.455 486.613 134.055C485.671 136.599 484.48 138.672 483.039 140.276C481.654 141.824 480.131 142.931 478.469 143.594C476.807 144.313 475.283 144.673 473.898 144.673C471.239 144.673 469.05 144.092 467.333 142.931C465.615 141.714 464.12 140.027 462.845 137.871V143.345H454.452ZM494.673 64.3727H511.877V133.972H520.185V143.345H494.673V133.972H501.49V73.6636H494.673V64.3727ZM497.581 42.058C497.581 39.8458 498.304 37.9655 499.74 36.4171C501.24 34.8686 503.123 34.0943 505.394 34.0943C507.612 34.0943 509.495 34.8686 511.042 36.4171C512.596 37.9655 513.372 39.8458 513.372 42.058C513.372 44.3254 512.596 46.2057 511.042 47.6989C509.495 49.192 507.612 49.9386 505.394 49.9386C503.123 49.9386 501.24 49.192 499.74 47.6989C498.304 46.2057 497.581 44.3254 497.581 42.058ZM525.254 143.345V114.311H534.146V121.28C534.146 124.155 534.37 126.533 534.811 128.414C535.311 130.294 535.923 131.787 536.641 132.893C537.359 133.999 538.162 134.773 539.05 135.216C539.992 135.658 540.906 135.88 541.795 135.88C542.624 135.88 543.454 135.714 544.284 135.382C545.119 135.05 545.863 134.442 546.528 133.557C547.193 132.672 547.719 131.483 548.108 129.99C548.554 128.441 548.772 126.45 548.772 124.017C548.772 120.754 548.193 117.989 547.028 115.722C545.922 113.454 544.507 111.408 542.789 109.583C541.071 107.758 539.215 106.016 537.221 104.357C535.285 102.698 533.455 100.817 531.737 98.7161C530.019 96.6143 528.578 94.1535 527.418 91.3328C526.307 88.5126 525.754 85.0559 525.754 80.9636C525.754 78.0325 526.115 75.4331 526.833 73.1656C527.61 70.8434 528.61 68.9077 529.828 67.3591C531.099 65.7552 532.54 64.5384 534.146 63.7091C535.753 62.8798 537.391 62.4646 539.05 62.4646C540.933 62.4646 542.651 63.0178 544.204 64.1237C545.757 65.2301 547.001 66.8335 547.943 68.9353V64.3727H556.25V91.001H547.363V84.3646C547.363 81.9315 547.193 79.8853 546.863 78.2263C546.587 76.5672 546.198 75.2399 545.698 74.2444C545.198 73.1938 544.592 72.4468 543.869 72.0045C543.204 71.5623 542.459 71.3409 541.624 71.3409C540.906 71.3409 540.188 71.5071 539.465 71.8384C538.8 72.115 538.194 72.613 537.635 73.3318C537.082 74.0507 536.641 75.0185 536.306 76.2353C535.976 77.3964 535.811 78.8623 535.811 80.6318C535.811 84.0052 536.364 86.7983 537.47 89.0101C538.635 91.2224 540.077 93.2133 541.795 94.9828C543.512 96.7529 545.337 98.4672 547.278 100.126C549.272 101.73 551.129 103.61 552.847 105.767C554.564 107.868 555.974 110.413 557.085 113.399C558.245 116.385 558.83 120.091 558.83 124.515C558.83 128.276 558.357 131.455 557.415 134.055C556.474 136.599 555.282 138.672 553.841 140.276C552.458 141.824 550.932 142.931 549.272 143.594C547.608 144.313 546.087 144.673 544.704 144.673C542.045 144.673 539.853 144.092 538.135 142.931C536.417 141.714 534.923 140.027 533.646 137.871V143.345H525.254ZM587.417 135.547C589.024 135.547 590.406 135.16 591.571 134.386C592.736 133.612 593.842 132.755 594.895 131.815L599.464 139.778C598.858 140.331 598.108 140.94 597.225 141.604C596.39 142.267 595.395 142.876 594.23 143.428C593.124 143.981 591.874 144.451 590.491 144.838C589.109 145.226 587.641 145.419 586.088 145.419C581.546 145.419 577.945 143.899 575.286 140.857C572.68 137.76 571.376 133.087 571.376 126.837V73.6636H561.904V64.3727H571.376V40.3989H581.764V64.3727H595.56V73.6636H581.764V126.837C581.764 129.824 582.237 132.036 583.178 133.474C584.12 134.856 585.535 135.547 587.417 135.547Z" fill="#F2FAF8"/>
</svg>
